<svg width="511" height="146" viewBox="0 0 511 146" fill="none" xmlns="http://www.w3.org/2000/svg">
<path d="M101.331 53.6228C99.0928 53.62 96.8825 54.0686 94.8629 54.9356V40.0588C94.8623 37.7082 94.182 35.3981 92.8887 33.355C91.5955 31.3119 89.7337 29.606 87.4859 28.4044C85.2381 27.2028 82.6814 26.5468 80.0666 26.5008C77.4518 26.4547 74.8685 27.0202 72.5701 28.1418C71.4636 25.0685 69.1731 22.451 66.1107 20.7602C63.0483 19.0694 59.4151 18.4164 55.8648 18.9186C52.3144 19.4209 49.0801 21.0454 46.7436 23.4999C44.4071 25.9544 43.122 29.0777 43.1194 32.3079V35.5584C41.0998 34.6914 38.8895 34.2428 36.6514 34.2456C32.6488 34.2456 28.8102 35.6747 25.9799 38.2184C23.1496 40.7622 21.5596 44.2123 21.5596 47.8097V84.6264C21.5596 95.9325 26.5568 106.776 35.452 114.77C44.3471 122.765 56.4115 127.256 68.9912 127.256C81.5708 127.256 93.6352 122.765 102.53 114.77C111.425 106.776 116.423 95.9325 116.423 84.6264V67.1869C116.423 63.5895 114.833 60.1394 112.002 57.5957C109.172 55.0519 105.333 53.6228 101.331 53.6228ZM107.799 84.6264C107.799 93.8769 103.71 102.748 96.4323 109.29C89.1545 115.831 79.2836 119.505 68.9912 119.505C58.6987 119.505 48.8278 115.831 41.55 109.29C34.2721 102.748 30.1835 93.8769 30.1835 84.6264V47.8097C30.1835 46.2679 30.8649 44.7893 32.0779 43.6991C33.2909 42.609 34.936 41.9965 36.6514 41.9965C38.3668 41.9965 40.012 42.609 41.225 43.6991C42.4379 44.7893 43.1194 46.2679 43.1194 47.8097V69.1246C43.1194 70.1524 43.5737 71.1382 44.3823 71.865C45.191 72.5917 46.2877 73 47.4313 73C48.5749 73 49.6717 72.5917 50.4804 71.865C51.289 71.1382 51.7433 70.1524 51.7433 69.1246V32.3079C51.7433 30.7662 52.4247 29.2875 53.6377 28.1974C54.8507 27.1072 56.4958 26.4947 58.2112 26.4947C59.9267 26.4947 61.5718 27.1072 62.7848 28.1974C63.9978 29.2875 64.6792 30.7662 64.6792 32.3079V65.2492C64.6792 66.277 65.1335 67.2627 65.9421 67.9895C66.7508 68.7163 67.8476 69.1246 68.9912 69.1246C70.1348 69.1246 71.2315 68.7163 72.0402 67.9895C72.8488 67.2627 73.3031 66.277 73.3031 65.2492V40.0588C73.3031 38.517 73.9846 37.0384 75.1975 35.9483C76.4105 34.8581 78.0557 34.2456 79.7711 34.2456C81.4865 34.2456 83.1316 34.8581 84.3446 35.9483C85.5576 37.0384 86.239 38.517 86.239 40.0588V73.3246C80.2141 74.2477 74.7461 77.055 70.801 81.2505C66.8559 85.446 64.6876 90.7596 64.6792 96.2527C64.6792 97.2805 65.1335 98.2663 65.9421 98.9931C66.7508 99.7198 67.8476 100.128 68.9912 100.128C70.1348 100.128 71.2315 99.7198 72.0402 98.9931C72.8488 98.2663 73.3031 97.2805 73.3031 96.2527C73.3031 92.1414 75.1203 88.1984 78.3549 85.2913C81.5895 82.3842 85.9766 80.7509 90.551 80.7509C91.6946 80.7509 92.7913 80.3426 93.6 79.6158C94.4086 78.8891 94.8629 77.9033 94.8629 76.8755V67.1869C94.8629 65.6451 95.5444 64.1665 96.7573 63.0764C97.9703 61.9862 99.6155 61.3737 101.331 61.3737C103.046 61.3737 104.691 61.9862 105.904 63.0764C107.117 64.1665 107.799 65.6451 107.799 67.1869V84.6264Z" fill="#7676F8"/>
<path d="M157.379 109.097C155.887 109.097 154.716 108.671 153.863 107.819C153.011 106.967 152.585 105.724 152.585 104.091V37.4055C152.585 35.7721 153.011 34.5648 153.863 33.7836C154.716 32.9314 155.887 32.5053 157.379 32.5053C158.941 32.5053 160.148 32.9314 161.001 33.7836C161.853 34.5648 162.279 35.7721 162.279 37.4055V67.7654H160.894C162.385 63.7174 164.8 60.6637 168.138 58.6042C171.547 56.5447 175.417 55.5149 179.749 55.5149C183.939 55.5149 187.383 56.2961 190.082 57.8585C192.781 59.3498 194.805 61.6224 196.154 64.6761C197.503 67.7299 198.178 71.5648 198.178 76.1809V104.091C198.178 105.724 197.752 106.967 196.9 107.819C196.119 108.671 194.947 109.097 193.384 109.097C191.822 109.097 190.615 108.671 189.763 107.819C188.91 106.967 188.484 105.724 188.484 104.091V76.7136C188.484 72.0975 187.597 68.7241 185.821 66.5936C184.046 64.4631 181.205 63.3978 177.299 63.3978C172.754 63.3978 169.097 64.8182 166.327 67.6589C163.628 70.4285 162.279 74.1925 162.279 78.9506V104.091C162.279 107.429 160.645 109.097 157.379 109.097ZM235.597 109.311C230.484 109.311 226.045 108.21 222.281 106.008C218.517 103.807 215.606 100.682 213.546 96.6339C211.487 92.586 210.457 87.8278 210.457 82.3595C210.457 78.2405 211.025 74.5475 212.161 71.2808C213.369 67.9429 215.073 65.1022 217.275 62.7587C219.476 60.4151 222.104 58.6397 225.158 57.4324C228.282 56.1541 231.762 55.5149 235.597 55.5149C240.71 55.5149 245.149 56.6157 248.913 58.8172C252.677 61.0187 255.588 64.1435 257.648 68.1915C259.707 72.1685 260.737 76.8911 260.737 82.3595C260.737 86.4785 260.134 90.2069 258.926 93.5447C257.79 96.8825 256.121 99.7232 253.92 102.067C251.718 104.41 249.055 106.221 245.93 107.5C242.876 108.707 239.432 109.311 235.597 109.311ZM235.597 101.641C238.722 101.641 241.42 100.895 243.693 99.4036C246.037 97.9123 247.812 95.7462 249.019 92.9055C250.298 90.0648 250.937 86.5495 250.937 82.3595C250.937 76.1099 249.552 71.3518 246.782 68.085C244.013 64.8182 240.284 63.1848 235.597 63.1848C232.543 63.1848 229.845 63.9305 227.501 65.4218C225.229 66.8422 223.453 68.9727 222.175 71.8134C220.896 74.6541 220.257 78.1694 220.257 82.3595C220.257 88.609 221.642 93.4027 224.412 96.7405C227.253 100.007 230.981 101.641 235.597 101.641ZM289.453 109.311C284.127 109.311 280.079 107.748 277.309 104.623C274.54 101.428 273.155 96.847 273.155 90.8815V37.4055C273.155 35.7721 273.581 34.5648 274.433 33.7836C275.285 32.9314 276.457 32.5053 277.949 32.5053C279.511 32.5053 280.718 32.9314 281.571 33.7836C282.423 34.5648 282.849 35.7721 282.849 37.4055V90.1359C282.849 93.8288 283.595 96.5984 285.086 98.4449C286.648 100.22 288.85 101.108 291.69 101.108C292.33 101.108 292.898 101.108 293.395 101.108C293.892 101.037 294.389 100.966 294.886 100.895C295.667 100.824 296.236 101.037 296.591 101.534C296.946 102.031 297.123 103.026 297.123 104.517C297.123 105.866 296.804 106.931 296.165 107.713C295.596 108.423 294.638 108.884 293.288 109.097C292.649 109.169 292.01 109.204 291.371 109.204C290.732 109.275 290.093 109.311 289.453 109.311ZM324.49 109.311C319.945 109.311 315.932 108.245 312.452 106.115C309.043 103.913 306.38 100.788 304.463 96.7405C302.545 92.6215 301.587 87.8278 301.587 82.3595C301.587 76.8201 302.51 72.0619 304.356 68.085C306.274 64.037 308.937 60.9477 312.346 58.8172C315.826 56.6157 319.874 55.5149 324.49 55.5149C329.106 55.5149 333.083 56.6867 336.421 59.0303C339.758 61.3028 341.995 64.3566 343.132 68.1915H341.96V37.4055C341.96 35.7721 342.351 34.5648 343.132 33.7836C343.984 32.9314 345.191 32.5053 346.754 32.5053C348.316 32.5053 349.523 32.9314 350.376 33.7836C351.228 34.5648 351.654 35.7721 351.654 37.4055V104.091C351.654 105.724 351.228 106.967 350.376 107.819C349.523 108.671 348.316 109.097 346.754 109.097C345.262 109.097 344.09 108.671 343.238 107.819C342.386 106.967 341.96 105.724 341.96 104.091V94.3969L343.132 96.3144C342.066 100.291 339.829 103.452 336.421 105.795C333.083 108.139 329.106 109.311 324.49 109.311ZM326.727 101.641C329.851 101.641 332.55 100.895 334.823 99.4036C337.166 97.9123 338.942 95.7462 340.149 92.9055C341.427 90.0648 342.066 86.5495 342.066 82.3595C342.066 76.1099 340.682 71.3518 337.912 68.085C335.142 64.8182 331.414 63.1848 326.727 63.1848C323.673 63.1848 320.974 63.9305 318.631 65.4218C316.358 66.8422 314.583 68.9727 313.304 71.8134C312.026 74.6541 311.387 78.1694 311.387 82.3595C311.387 88.609 312.772 93.4027 315.541 96.7405C318.382 100.007 322.111 101.641 326.727 101.641ZM413.509 109.311C409.319 109.311 405.803 108.529 402.963 106.967C400.193 105.405 398.134 103.097 396.784 100.043C395.435 96.989 394.76 93.1541 394.76 88.538V60.6281C394.76 58.9948 395.151 57.7875 395.932 57.0063C396.784 56.1541 397.992 55.728 399.554 55.728C401.116 55.728 402.324 56.1541 403.176 57.0063C404.028 57.7875 404.454 58.9948 404.454 60.6281V88.538C404.454 92.941 405.342 96.2078 407.117 98.3384C408.893 100.398 411.698 101.428 415.533 101.428C419.794 101.428 423.238 100.007 425.866 97.1666C428.565 94.3259 429.914 90.562 429.914 85.8748V60.6281C429.914 58.9948 430.304 57.7875 431.086 57.0063C431.938 56.1541 433.145 55.728 434.708 55.728C436.27 55.728 437.477 56.1541 438.329 57.0063C439.182 57.7875 439.608 58.9948 439.608 60.6281V104.091C439.608 107.429 438.045 109.097 434.921 109.097C433.358 109.097 432.151 108.671 431.299 107.819C430.517 106.967 430.127 105.724 430.127 104.091V94.823L431.512 96.6339C430.091 100.753 427.783 103.913 424.588 106.115C421.463 108.245 417.77 109.311 413.509 109.311ZM460 128.272C458.509 128.272 457.337 127.846 456.485 126.994C455.632 126.142 455.206 124.934 455.206 123.372V60.6281C455.206 58.9948 455.632 57.7875 456.485 57.0063C457.337 56.1541 458.509 55.728 460 55.728C461.562 55.728 462.734 56.1541 463.515 57.0063C464.368 57.7875 464.794 58.9948 464.794 60.6281V70.322L463.622 68.4045C464.758 64.4986 466.995 61.3738 470.333 59.0303C473.671 56.6867 477.683 55.5149 482.37 55.5149C486.987 55.5149 490.999 56.6157 494.408 58.8172C497.817 60.9477 500.48 64.037 502.397 68.085C504.315 72.0619 505.274 76.8201 505.274 82.3595C505.274 87.8278 504.315 92.6215 502.397 96.7405C500.551 100.788 497.888 103.913 494.408 106.115C490.999 108.245 486.987 109.311 482.37 109.311C477.754 109.311 473.777 108.139 470.439 105.795C467.102 103.452 464.865 100.362 463.728 96.5274H464.9V123.372C464.9 124.934 464.474 126.142 463.622 126.994C462.77 127.846 461.562 128.272 460 128.272ZM480.133 101.641C483.187 101.641 485.85 100.895 488.123 99.4036C490.466 97.9123 492.277 95.7462 493.556 92.9055C494.834 90.0648 495.473 86.5495 495.473 82.3595C495.473 76.1099 494.088 71.3518 491.319 68.085C488.549 64.8182 484.821 63.1848 480.133 63.1848C477.009 63.1848 474.274 63.9305 471.931 65.4218C469.658 66.8422 467.883 68.9727 466.605 71.8134C465.397 74.6541 464.794 78.1694 464.794 82.3595C464.794 88.609 466.178 93.4027 468.948 96.7405C471.718 100.007 475.446 101.641 480.133 101.641Z" fill="#7676F8"/>
</svg>
