<svg width="100" height="100" viewBox="0 0 100 100" fill="none" xmlns="http://www.w3.org/2000/svg">
<rect width="100" height="100" rx="32" fill="#8181E4"/>
<path d="M65.9038 40.5208C64.8089 40.5194 63.7277 40.7389 62.7397 41.163V33.8854C62.7394 32.7355 62.4066 31.6055 61.774 30.606C61.1413 29.6065 60.2306 28.772 59.131 28.1842C58.0314 27.5964 56.7807 27.2755 55.5015 27.253C54.2224 27.2304 52.9586 27.5071 51.8343 28.0557C51.293 26.5523 50.1725 25.2718 48.6744 24.4447C47.1763 23.6176 45.399 23.2982 43.6622 23.5438C41.9254 23.7895 40.3432 24.5842 39.2002 25.7849C38.0572 26.9857 37.4285 28.5136 37.4272 30.0938V31.6839C36.4393 31.2597 35.358 31.0403 34.2632 31.0417C32.3051 31.0417 30.4273 31.7408 29.0427 32.9851C27.6582 34.2295 26.8804 35.9173 26.8804 37.6771V55.6875C26.8804 61.2184 29.325 66.5227 33.6764 70.4336C38.0278 74.3445 43.9296 76.5417 50.0835 76.5417C56.2373 76.5417 62.1392 74.3445 66.4906 70.4336C70.842 66.5227 73.2866 61.2184 73.2866 55.6875V47.1563C73.2866 45.3964 72.5088 43.7087 71.1242 42.4643C69.7397 41.2199 67.8619 40.5208 65.9038 40.5208ZM69.0679 55.6875C69.0679 60.2128 67.0677 64.5527 63.5075 67.7525C59.9472 70.9524 55.1185 72.75 50.0835 72.75C45.0485 72.75 40.2198 70.9524 36.6595 67.7525C33.0993 64.5527 31.0991 60.2128 31.0991 55.6875V37.6771C31.0991 36.9229 31.4325 36.1996 32.0259 35.6662C32.6192 35.1329 33.424 34.8333 34.2632 34.8333C35.1023 34.8333 35.9071 35.1329 36.5005 35.6662C37.0939 36.1996 37.4272 36.9229 37.4272 37.6771V48.1042C37.4272 48.607 37.6495 49.0892 38.0451 49.4447C38.4407 49.8003 38.9772 50 39.5366 50C40.0961 50 40.6326 49.8003 41.0282 49.4447C41.4238 49.0892 41.646 48.607 41.646 48.1042V30.0938C41.646 29.3395 41.9794 28.6162 42.5727 28.0829C43.1661 27.5496 43.9709 27.25 44.8101 27.25C45.6492 27.25 46.454 27.5496 47.0474 28.0829C47.6408 28.6162 47.9741 29.3395 47.9741 30.0938V46.2083C47.9741 46.7111 48.1964 47.1934 48.5919 47.5489C48.9875 47.9044 49.5241 48.1042 50.0835 48.1042C50.6429 48.1042 51.1795 47.9044 51.5751 47.5489C51.9706 47.1934 52.1929 46.7111 52.1929 46.2083V33.8854C52.1929 33.1312 52.5262 32.4079 53.1196 31.8746C53.713 31.3413 54.5178 31.0417 55.3569 31.0417C56.1961 31.0417 57.0009 31.3413 57.5943 31.8746C58.1876 32.4079 58.521 33.1312 58.521 33.8854V50.1588C55.5737 50.6104 52.8988 51.9837 50.9689 54.036C49.0389 56.0884 47.9782 58.6878 47.9741 61.375C47.9741 61.8778 48.1964 62.36 48.5919 62.7156C48.9875 63.0711 49.5241 63.2708 50.0835 63.2708C50.6429 63.2708 51.1795 63.0711 51.5751 62.7156C51.9706 62.36 52.1929 61.8778 52.1929 61.375C52.1929 59.3638 53.0818 57.4349 54.6642 56.0128C56.2465 54.5906 58.3926 53.7917 60.6304 53.7917C61.1898 53.7917 61.7263 53.5919 62.1219 53.2364C62.5175 52.8809 62.7397 52.3986 62.7397 51.8958V47.1563C62.7397 46.402 63.0731 45.6787 63.6665 45.1454C64.2599 44.6121 65.0646 44.3125 65.9038 44.3125C66.743 44.3125 67.5478 44.6121 68.1411 45.1454C68.7345 45.6787 69.0679 46.402 69.0679 47.1563V55.6875Z" fill="#F6F7F9"/>
</svg>
